<?xml version="1.0" standalone="no"?><!DOCTYPE svg PUBLIC "-//W3C//DTD SVG 1.1//EN" "http://www.w3.org/Graphics/SVG/1.1/DTD/svg11.dtd"><svg t="1531388464826" class="icon" style="" viewBox="0 0 1024 1024" version="1.1" xmlns="http://www.w3.org/2000/svg" p-id="6042" xmlns:xlink="http://www.w3.org/1999/xlink" width="16" height="16"><defs><style type="text/css"></style></defs><path d="M147.8592 571.30496l62.46016 62.46144 356.8064-356.81408-62.44992-62.46528-356.81664 356.81792z m-53.11232 115.57248l79.59808-31.84384-47.76448-47.75552-31.8336 79.59936z m530.5024-562.5984l-48.13824 48.1408 32.08832 32.09984 48.15104-48.1408-32.10112-32.09984z" fill="#dbdbdb" p-id="6043"></path><path d="M40.54912 714.89536c-0.01152 0.02944-0.02944 0.0512-0.03968 0.07936-0.04992 0.13056-0.0896 0.26752-0.14848 0.39808l0.05888-0.13056 0.12928-0.34688z m949.51552 213.27616c-225.87008-140.65536-348.29056-141.71136-589.57568-16.64256-127.44064 66.05952-230.60224 26.15168-285.43232-27.66208-43.30752-42.51776-55.58272-98.64192-39.88864-145.08416l-9.7152 3.8848c-0.08832 0.02944-0.16768 0.06784-0.25728 0.09856l-0.27648 0.1088-0.02048-0.05888c-1.9072 0.61312-3.93344 0.98688-6.06848 0.98688-11.17824 0-20.24064-9.0624-20.24064-20.24064 0-2.13504 0.42496-4.14208 1.02656-6.07744l-0.02944-0.01024c-24.95488 63.10144-9.91232 139.55712 47.19104 195.59552 40.38272 39.6416 102.66624 73.30432 179.13088 73.30432 46.29248 0 97.79328-10.5664 152.78208-38.3872 229.0688-115.93856 337.03296-117.78688 550.06208 14.88384 9.4976 5.90976 21.98912 2.96448 27.88864-6.63168 5.8944-9.56672 2.94016-22.13632-6.57664-28.06784" fill="#dbdbdb" p-id="6044"></path><path d="M217.98912 520.70272l14.31168 14.31168 14.30912-14.31168-14.30912-14.3104-14.31168 14.3104z m57.25312-28.6208l-14.32192-14.32064-14.3104 14.32064 14.3104 14.3104 14.32192-14.3104z m-28.63232 57.24288l14.3104 14.32064 14.32192-14.32064-14.32192-14.31168-14.3104 14.31168z m-9.46688-66.7008l-14.30016 14.30528 9.45792 9.46304 14.30912-14.3104-9.46688-9.45792z m38.0992 66.7008l10.06976 10.09024 14.3104-14.32064-10.07104-10.08128-14.30912 14.31168z m-14.32192-42.93248l-14.3104 14.3104 14.3104 14.31168 14.32192-14.31168-14.32192-14.3104z m42.93248 14.3104l-14.30016-14.3104-14.3104 14.3104 14.3104 14.31168 14.30016-14.31168z" fill="#dbdbdb" p-id="6045"></path><path d="M186.24512 532.91904l-14.3104 14.3104 62.44992 62.46144 14.32064-14.3104z" fill="#dbdbdb" p-id="6046"></path><path d="M706.528 156.42752c0-5.58848-2.26176-10.65856-5.92896-14.32064l-60.72064-60.76544c-3.66592-3.6608-8.72704-5.93024-14.31168-5.93024s-10.6432 2.26816-14.3104 5.93024l-65.91104 65.9648c-13.856-4.2304-29.47968-1.05216-40.43136 9.9072-0.27648 0.27648-0.4544 0.59776-0.72064 0.88448l-398.9504 399.232c-2.26304 2.26432-3.91296 5.10976-4.89088 8.25216l-0.09984-0.02944-59.84128 149.68832c-0.15872 0.36608-0.29696 0.7424-0.44544 1.1264l-0.4352 1.09696 0.09856 0.02176c-0.62208 1.9264-1.0368 3.9424-1.0368 6.0672 0 11.19616 9.0624 20.25856 20.24064 20.25856 2.1248 0 4.1408-0.42496 6.06848-1.02784l0.02944 0.0896 1.088-0.4352c0.38528-0.14848 0.76032-0.28672 1.1264-0.45312l149.58976-59.872-0.02944-0.08832c3.13344-0.9984 5.98016-2.63936 8.24192-4.91264l398.9504-399.22176c0.28672-0.26112 0.61312-0.44416 0.88064-0.72064 10.95168-10.96064 14.14144-26.59456 9.91104-40.45568l5.1904-5.19424v-0.00896l60.72064-60.75136a20.20352 20.20352 0 0 0 5.92768-14.33216M126.90688 607.64544l47.75552 47.79392-79.59808 31.86432 31.84256-79.65824z m83.72864 26.50752l-62.46016-62.50112 356.81792-357.06496 62.4512 62.50496-356.80896 357.06112z m400.6208-431.28448l-0.01152 0.01024-1.72928 1.73056-32.09088-32.12032 1.73184-1.73056v-0.01024l46.41024-46.43456 32.0896 32.11392-46.4 46.44096z" fill="#dbdbdb" p-id="6047"></path></svg>